Coordinates
version=1
nRows=16
nColumns=22
inDegrees=yes

Units are S.I. units (second, meters, Newtons, ...)
If the header above contains a line with 'inDegrees', this indicates whether rotational values are in degrees (yes) or radians (no).

endheader
time	pelvis_tilt	pelvis_list	pelvis_rotation	pelvis_tx	pelvis_ty	pelvis_tz	hip_flexion_r	hip_adduction_r	hip_rotation_r	knee_angle_r	ankle_angle_r	subtalar_angle_r	hip_flexion_l	hip_adduction_l	hip_rotation_l	knee_angle_l	ankle_angle_l	subtalar_angle_l	lumbar_extension	lumbar_bending	lumbar_rotation
      3.71000000	    -10.39587163	      1.65340315	     -5.08244061	      0.09150582	      0.98077832	      0.16937927	     15.92689768	     -6.14964689	      0.09692728	    -50.08024438	      9.75626711	      7.95702407	     23.12517276	      3.35999806	     -3.86421659	    -17.60010409	     12.39555976	     -1.38757902	      2.20750609	     -0.81817016	      4.83695124
      3.72000000	    -10.31016825	      1.76262741	     -5.09325726	      0.09546689	      0.98088307	      0.16813547	     16.53822392	     -6.30337423	      0.31429506	    -50.95229835	     10.21363442	      7.61193685	     22.77028893	      3.59054938	     -3.86538225	    -17.54839954	     12.62499693	     -1.50190791	      2.17042991	     -0.97985948	      4.68057450
      3.73000000	    -10.22110159	      1.82923759	     -5.07879698	      0.09937505	      0.98102797	      0.16692694	     17.10719840	     -6.40993310	      0.48024847	    -51.63306296	     10.81621970	      7.25938278	     22.41774556	      3.78317937	     -3.82773386	    -17.50762823	     12.85550832	     -1.61201793	      2.12589160	     -1.09413708	      4.48435052
      3.74000000	    -10.13650179	      1.86816350	     -5.03904783	      0.10322374	      0.98120029	      0.16572922	     17.64787742	     -6.48604277	      0.60555278	    -52.12796061	     11.52351498	      6.88989978	     22.07311615	      3.95379419	     -3.75939906	    -17.46783287	     13.07496667	     -1.72490394	      2.08238999	     -1.17475921	      4.25973031
      3.75000000	    -10.05662413	      1.88001832	     -4.98078994	      0.10702136	      0.98140143	      0.16455640	     18.16194153	     -6.53580465	      0.68570827	    -52.43833677	     12.28851240	      6.49771104	     21.73682282	      4.09990205	     -3.65931512	    -17.43195373	     13.28176966	     -1.84164632	      2.04462322	     -1.22256281	      4.00416753
      3.76000000	     -9.98800689	      1.86549640	     -4.90805308	      0.11080070	      0.98162186	      0.16340034	     18.65422194	     -6.56365504	      0.71340946	    -52.56659495	     13.06767459	      5.99124919	     21.40302666	      4.22337417	     -3.51713617	    -17.37963776	     13.47714037	     -1.98947548	      2.02619274	     -1.23379220	      3.74212837
      3.77000000	     -9.91444789	      1.83967740	     -4.80760106	      0.11449946	      0.98184884	      0.16225698	     19.12338032	     -6.59086435	      0.69252251	    -52.54857215	     13.87671149	      5.57852823	     21.09427047	      4.33566556	     -3.38614939	    -17.37636773	     13.66735223	     -2.08486840	      1.99296501	     -1.23652131	      3.44490828
      3.78000000	     -9.84703601	      1.80200698	     -4.69790918	      0.11814707	      0.98207368	      0.16113772	     19.58184491	     -6.60814819	      0.64311360	    -52.38807640	     14.66310764	      5.11844223	     20.79874850	      4.43550721	     -3.24056803	    -17.38249582	     13.85458724	     -2.18535249	      1.96493401	     -1.22183002	      3.14446191
      3.79000000	     -9.78982397	      1.74366576	     -4.59392466	      0.12175448	      0.98229822	      0.16007572	     20.03521948	     -6.59920960	      0.57481249	    -52.09279541	     15.38986492	      4.50022936	     20.50411794	      4.50895710	     -3.07778872	    -17.36866809	     14.03299882	     -2.31758618	      1.94682969	     -1.18060106	      2.88059642
      3.80000000	     -9.73909827	      1.69313111	     -4.47411767	      0.12532357	      0.98249705	      0.15901675	     20.49002016	     -6.61775199	      0.45179958	    -51.69561706	     16.08977509	      3.99221443	     20.22319778	      4.59158779	     -2.91791719	    -17.36013649	     14.20944351	     -2.41611011	      1.93597630	     -1.14720372	      2.60149589
      3.81000000	     -9.69394787	      1.64058912	     -4.36249358	      0.12883702	      0.98267570	      0.15801844	     20.94730261	     -6.62930173	      0.32220775	    -51.20363140	     16.72664406	      3.45387581	     19.95659599	      4.66308540	     -2.77437576	    -17.36190983	     14.38740295	     -2.52751952	      1.92401317	     -1.11137196	      2.34291020
      3.82000000	     -9.65281394	      1.59653911	     -4.24519094	      0.13228848	      0.98281928	      0.15703998	     21.41544760	     -6.66170374	      0.15368033	    -50.64743559	     17.32453618	      3.03363272	     19.70697027	      4.73913569	     -2.65440483	    -17.37674483	     14.57118818	     -2.61813950	      1.90952264	     -1.08373390	      2.08286921
      3.83000000	     -9.62367380	      1.54570607	     -4.14803103	      0.13568347	      0.98294031	      0.15615211	     21.89777764	     -6.66877587	      0.00076458	    -50.02060392	     17.84274078	      2.53910126	     19.46534643	      4.79711870	     -2.52546976	    -17.37867754	     14.74708434	     -2.73706768	      1.90051337	     -1.04551231	      1.85973607
      3.84000000	     -9.59529570	      1.50338517	     -4.06715107	      0.13903264	      0.98303505	      0.15532715	     22.39172978	     -6.68293196	     -0.16189909	    -49.34808305	     18.32607987	      2.16456346	     19.23468118	      4.85193205	     -2.44005787	    -17.39235237	     14.92931519	     -2.83394375	      1.88779716	     -1.01624566	      1.67068965
      3.85000000	     -9.57090985	      1.46255561	     -4.00307546	      0.14231411	      0.98311029	      0.15457947	     22.89917343	     -6.68126163	     -0.30449129	    -48.63442679	     18.75879628	      1.83270268	     19.01220056	      4.89753801	     -2.36905227	    -17.40534143	     15.11185050	     -2.92791847	      1.86891567	     -0.98718372	      1.50823122
      3.86000000	     -9.54123273	      1.43203394	     -3.99202472	      0.14554243	      0.98318369	      0.15398538	     23.42170868	     -6.65067072	     -0.36967358	    -47.89371130	     19.17010633	      1.66695612	     18.77594218	      4.93403558	     -2.31893556	    -17.40022700	     15.28854465	     -2.97456635	      1.83930468	     -0.97107551	      1.41096742
